<?xml version="1.0" encoding="UTF-8" standalone="no"?>
<!DOCTYPE svg PUBLIC "-//W3C//DTD SVG 1.1//EN" "http://www.w3.org/Graphics/SVG/1.1/DTD/svg11.dtd">
<svg width="100%" height="100%" viewBox="0 0 1024 1024" version="1.1" xmlns="http://www.w3.org/2000/svg" xmlns:xlink="http://www.w3.org/1999/xlink" xml:space="preserve" xmlns:serif="http://www.serif.com/" style="fill-rule:evenodd;clip-rule:evenodd;stroke-linecap:round;stroke-linejoin:round;stroke-miterlimit:1.5;">
    <g transform="matrix(1.0825,0,0,1.0825,75.2833,70.4107)">
        <circle cx="403.435" cy="407.936" r="354.736" style="fill:none;stroke:rgb(255,116,119);stroke-width:29.56px;"/>
    </g>
    <g transform="matrix(1,0,0,1,-109.705,80.3028)">
        <path d="M364.521,546.897C392.457,546.897 407.721,535.953 416.361,520.401C420.969,512.049 416.937,505.137 410.889,505.137C409.449,505.137 408.297,505.425 406.857,506.001C401.385,508.305 393.033,509.745 388.713,509.745C376.617,509.745 374.025,504.273 374.025,495.345L374.025,420.465L403.689,420.465C415.785,420.465 418.089,417.585 417.801,404.337C417.513,391.953 414.633,388.785 402.249,388.785L374.025,388.785L374.025,365.745C374.025,356.817 368.553,352.209 362.793,352.209C357.033,352.209 352.425,356.529 346.377,363.441C335.721,377.265 325.353,387.057 311.241,394.257C306.345,396.849 301.449,400.593 301.449,409.233C301.449,417.873 304.329,420.753 314.121,420.753L322.185,420.753L322.185,499.953C322.185,529.329 332.553,546.897 364.521,546.897Z" style="fill:rgb(255,116,119);fill-rule:nonzero;"/>
        <path d="M443.145,544.017L491.529,544.017C504.777,544.017 506.505,539.409 506.505,534.225C506.505,528.753 501.609,523.857 493.257,516.081L493.257,438.033C497.289,428.817 503.625,423.345 510.825,423.345C524.073,423.345 529.545,448.977 533.577,516.081C525.225,523.857 520.329,528.753 520.329,534.225C520.329,539.409 522.057,544.017 535.305,544.017L583.113,544.017C596.361,544.017 598.089,539.409 598.089,534.225C598.089,528.753 593.193,523.857 584.841,516.081C579.081,428.529 567.273,385.905 530.697,385.905C514.569,385.905 501.321,394.833 493.257,405.489L493.257,337.809C493.257,323.697 488.361,319.377 479.433,319.377C464.745,319.377 426.441,332.913 426.441,346.161C426.441,350.769 431.337,355.953 441.417,359.121L441.417,516.081C433.065,523.857 428.169,528.753 428.169,534.225C428.169,539.409 429.897,544.017 443.145,544.017Z" style="fill:rgb(255,116,119);fill-rule:nonzero;"/>
        <path d="M727.113,546.609C746.121,546.609 766.857,532.209 766.857,514.929C766.857,508.593 763.689,505.137 757.641,505.713C750.441,506.289 747.273,504.849 746.409,498.225L737.769,437.457C733.449,406.929 716.457,385.905 678.729,385.905C651.369,385.905 626.313,398.577 617.385,422.769C613.929,431.985 622.281,437.169 629.193,433.137C637.545,428.241 648.489,422.193 659.721,422.193C679.017,422.193 686.217,431.985 688.233,447.249C648.201,441.489 607.017,460.785 607.017,501.393C607.017,528.465 623.433,546.897 653.961,546.897C675.273,546.897 689.385,538.545 698.025,523.857C700.329,540.561 708.681,546.609 727.113,546.609ZM634.953,370.065C634.665,373.809 636.105,376.689 639.849,376.689C651.657,376.689 665.481,371.793 675.273,358.257C678.153,354.225 679.305,354.225 682.185,358.257C691.977,371.793 705.225,376.689 717.321,376.689C721.065,376.689 722.505,374.097 722.217,370.065C721.353,359.697 714.153,342.993 700.329,328.593C693.129,320.529 685.641,316.497 678.729,316.497C671.529,316.497 664.041,320.529 656.841,328.593C643.881,342.417 635.817,359.985 634.953,370.065ZM653.097,497.073C653.097,477.201 671.241,472.881 690.537,473.169L691.977,492.177C689.961,501.969 681.033,512.913 670.377,512.913C657.993,512.913 653.097,506.001 653.097,497.073Z" style="fill:rgb(255,116,119);fill-rule:nonzero;"/>
        <path d="M831.081,546.033C850.953,545.745 865.353,536.817 874.281,524.145C875.721,536.241 884.361,546.897 902.217,546.897C921.225,546.897 941.961,532.497 941.961,515.217C941.961,508.881 938.793,505.425 932.745,506.001C925.545,506.577 921.513,505.137 921.513,498.513L921.513,404.625C921.513,390.513 915.465,384.177 901.641,386.481C891.561,388.209 881.193,391.377 869.673,397.137C861.321,401.457 857.289,405.489 857.289,411.249C857.289,414.993 861.321,419.601 869.673,423.057L869.673,493.041C864.489,502.833 857.865,507.153 850.377,507.441C838.569,507.729 833.673,497.361 832.809,469.713C831.657,442.065 832.809,422.769 834.825,405.489C836.553,391.953 831.369,385.329 817.545,387.345C808.041,388.785 792.489,394.257 780.969,400.881C772.905,405.777 769.449,408.081 769.737,413.265C770.025,418.737 773.769,422.769 782.409,426.801C781.257,441.201 780.681,454.449 780.969,475.185C782.121,507.441 785.577,546.897 831.081,546.033Z" style="fill:rgb(255,116,119);fill-rule:nonzero;"/>
    </g>
</svg>
